<svg width="80" height="80" viewBox="0 0 80 80" fill="none" xmlns="http://www.w3.org/2000/svg">
<path d="M75.8979 48.6397C75.4318 48.4545 74.8997 48.5703 74.5534 48.9329L69.3334 54.4198V21.829H69.3395L74.3201 16.4512C74.7783 15.956 74.7481 15.1822 74.2524 14.724C74.2524 14.724 74.2518 14.7235 74.2513 14.7229L72.4587 13.0545L74.9495 10.3656C75.4072 9.86989 75.3764 9.09668 74.8807 8.63902L69.5029 3.65845C69.0077 3.20023 68.2345 3.22988 67.7763 3.72559L59.0863 13.1088H16.7778C16.7739 9.73506 14.0402 7.00139 10.6665 6.99748H9.44455C6.07083 7.00139 3.33717 9.73506 3.33325 13.1088V65.6644C3.33325 66.3391 3.88043 66.8863 4.55574 66.8863H23.0575L20.4905 69.9685C20.0592 70.4877 20.1297 71.2581 20.6483 71.6895L26.284 76.3819C26.8027 76.8139 27.5737 76.7434 28.0056 76.2247L28.0062 76.2242L34.2618 68.7085C34.6937 68.1882 34.9718 67.5566 35.0635 66.8863H57.4593L50.1138 74.6C49.6489 75.089 49.6684 75.8627 50.1574 76.3277C50.3846 76.5436 50.6862 76.6645 51 76.6639H75.4441C76.1194 76.6639 76.6666 76.1167 76.6666 75.442V49.7754C76.6666 49.2753 76.3622 48.8254 75.8979 48.6397ZM71.6961 15.6752L69.3334 18.2309V16.4333L70.7998 14.8443L71.6961 15.6752ZM66.889 15.4575V15.4749L56.5524 26.6462L52.9627 23.325L65.4147 9.86822L69.0044 13.1893L66.9035 15.4575H66.889ZM54.2048 27.8021L51.3934 28.6223L51.9937 25.7549L54.2048 27.8021ZM68.7358 6.28021L72.3238 9.59966L70.6633 11.3973L67.0747 8.07449L68.7358 6.28021ZM9.44455 9.44189H10.6665C12.6918 9.44189 14.3334 11.0834 14.3334 13.1088V59.585C13.2815 58.7759 11.993 58.3351 10.6665 58.3306H9.44455C8.11744 58.3351 6.8295 58.7759 5.77766 59.585V13.1088C5.77766 11.0834 7.4192 9.44189 9.44455 9.44189ZM9.44455 60.775H10.6665C12.6918 60.775 14.3334 62.4171 14.3334 64.4419H5.77766C5.77766 62.4171 7.4192 60.775 9.44455 60.775ZM32.3842 67.1453L31.602 68.0842L27.845 64.9566L28.6261 64.0167C29.058 63.498 29.8284 63.4275 30.3471 63.8595C30.3476 63.8595 30.3476 63.86 30.3482 63.86L32.2264 65.4199C32.7456 65.8512 32.8166 66.6217 32.3853 67.1409C32.3847 67.1414 32.3847 67.1414 32.3842 67.142V67.1453ZM26.9101 73.721L23.1526 70.5935L26.2807 66.8348L30.0377 69.9629L26.9101 73.721ZM34.5499 64.4419C34.3468 64.1034 34.09 63.8007 33.7896 63.545L31.9114 61.9818C30.3549 60.686 28.0431 60.897 26.7473 62.4535L25.089 64.4419H16.7778V15.5532H56.8249L50.3387 22.5625C50.2458 22.6671 50.172 22.7879 50.1211 22.9183C50.1065 22.9535 50.0953 22.9866 50.083 23.0235C50.0713 23.0598 50.0528 23.0968 50.0439 23.1359L48.5847 30.1122C48.4471 30.773 48.8712 31.4203 49.5319 31.5579C49.7283 31.5988 49.9314 31.5909 50.1233 31.535L56.9681 29.5404C57 29.5303 57.0268 29.5119 57.0571 29.5012C57.0878 29.4901 57.1197 29.4744 57.1527 29.4582C57.2898 29.3961 57.414 29.3082 57.5192 29.2002L66.889 19.074V56.9861L59.7879 64.4419H34.5499ZM74.2222 74.2195H53.8512L74.2222 52.8308V74.2195Z" fill="#EE1F23"/>
<path d="M60.8708 71.0209C61.0599 71.4774 61.5059 71.7751 62.0004 71.7751H70.5556C71.2309 71.7751 71.7781 71.2279 71.7781 70.5531V61.9974C71.7781 61.3221 71.2303 60.7755 70.5556 60.7755C70.2316 60.7755 69.9206 60.9042 69.6917 61.1336L61.136 69.6887C60.7864 70.0384 60.6817 70.5643 60.8708 71.0209ZM69.3337 64.9476V69.3307H64.9506L69.3337 64.9476Z" fill="#EE1F23"/>
<path d="M57.1109 49.7755H48.5558V36.331C48.5541 36.0065 48.4249 35.6954 48.196 35.4654L40.8628 28.1322C40.3856 27.655 39.6118 27.655 39.1346 28.1322L31.8013 35.4654C31.5736 35.696 31.4455 36.007 31.4444 36.331V49.7755H22.8892C22.2139 49.7755 21.6667 50.3227 21.6667 50.9974C21.6667 51.6727 22.2139 52.2199 22.8892 52.2199H57.1115C57.7862 52.2199 58.3334 51.6727 58.3334 50.9974C58.3334 50.3227 57.7862 49.7755 57.1109 49.7755ZM40.0001 30.7255L44.3831 35.1085H35.617L40.0001 30.7255ZM33.8888 37.5529H46.1114V49.7755H33.8888V37.5529Z" fill="#EE1F23"/>
<path d="M38.7773 22.8865H41.2223V25.3309H38.7773V22.8865Z" fill="#EE1F23"/>
<path d="M38.7773 54.6642H41.2223V57.1086H38.7773V54.6642Z" fill="#EE1F23"/>
</svg>
