<svg width="80" height="80" viewBox="0 0 80 80" fill="none" xmlns="http://www.w3.org/2000/svg">
<path d="M19.1989 52.2739C14.9237 52.2739 11.447 55.7506 11.447 60.0258C11.447 64.3011 14.9237 67.7778 19.1989 67.7778C23.4742 67.7778 26.9509 64.3011 26.9509 60.0258C26.9509 55.7506 23.474 52.2739 19.1989 52.2739ZM19.1989 65.1937C16.3487 65.1937 14.031 62.8759 14.031 60.0258C14.031 57.1757 16.3489 54.858 19.1989 54.858C22.049 54.858 24.3668 57.1758 24.3668 60.0258C24.3668 62.8759 22.049 65.1937 19.1989 65.1937Z" fill="#EE1F23"/>
<path d="M63.1266 52.2739C58.8513 52.2739 55.3746 55.7506 55.3746 60.0258C55.3746 64.3011 58.8513 67.7778 63.1266 67.7778C67.4018 67.7778 70.8785 64.3011 70.8785 60.0258C70.8785 55.7506 67.4018 52.2739 63.1266 52.2739ZM63.1266 65.1937C60.2764 65.1937 57.9587 62.8759 57.9587 60.0258C57.9587 57.1757 60.2765 54.858 63.1266 54.858C65.9767 54.858 68.2945 57.1758 68.2945 60.0258C68.2945 62.8759 65.9767 65.1937 63.1266 65.1937Z" fill="#EE1F23"/>
<path d="M78.4249 45.115L66.797 27.0271C66.5593 26.6576 66.1497 26.4341 65.7104 26.4341H51.4986C50.7841 26.4341 50.2067 27.0129 50.2067 27.726V60.0256C50.2067 60.7401 50.7841 61.3176 51.4986 61.3176H56.6665V58.7335H52.7905V29.0181H65.005L76.0463 46.1938V58.7339H69.5863V61.3177H77.3382C78.0527 61.3177 78.6302 60.7403 78.6302 60.0258V45.8139C78.6303 45.5671 78.5593 45.3229 78.4249 45.115Z" fill="#EE1F23"/>
<path d="M57.9586 43.2299V34.1861H68.2946V31.6021H56.6667C55.9522 31.6021 55.3748 32.1809 55.3748 32.894V44.5219C55.3748 45.2363 55.9522 45.8138 56.6667 45.8138H76.0465V43.2298H57.9586V43.2299Z" fill="#EE1F23"/>
<path d="M51.4986 17.3903H2.40302C1.6899 17.3903 1.11108 17.9691 1.11108 18.6822V60.0258C1.11108 60.7403 1.6899 61.3178 2.40302 61.3178H12.739V58.7337H3.69511V19.9741H50.2066V58.7337H25.6588V61.3178H51.4986C52.213 61.3178 52.7905 60.7403 52.7905 60.0258V18.6822C52.7905 17.9691 52.213 17.3903 51.4986 17.3903Z" fill="#EE1F23"/>
<path d="M10.155 53.5659H2.40308V56.1499H10.155V53.5659Z" fill="#EE1F23"/>
<path d="M50.2067 53.5659H28.2429V56.1499H50.2067V53.5659Z" fill="#EE1F23"/>
<path d="M77.3383 53.5659H72.1704V56.1499H77.3383V53.5659Z" fill="#EE1F23"/>
<path d="M51.4986 22.5582H6.27905V25.1423H51.4986V22.5582Z" fill="#EE1F23"/>
<path d="M20.4909 58.7338H17.9069V61.3178H20.4909V58.7338Z" fill="#EE1F23"/>
<path d="M64.4186 58.7338H61.8346V61.3178H64.4186V58.7338Z" fill="#EE1F23"/>
<path d="M24.3669 12.2222H6.27905V14.8062H24.3669V12.2222Z" fill="#EE1F23"/>
<path d="M3.69511 12.2222H1.11108V14.8062H3.69511V12.2222Z" fill="#EE1F23"/>
</svg>
